  <svg
                                            xmlns="http://www.w3.org/2000/svg"
                                            width="12"
                                            height="12"
                                            className="mx-2 sm:mx-3 h-4 sm:h-5 w-4 sm:w-5"
                                        >
                                            <path
                                                fillRule="evenodd"
                                                clipRule="evenodd"
                                                d="M3 3.5a1 1 0 00-1 1v7a1 1 0 001 1h10a1 1 0 001-1v-7a1 1 0 00-1-1H3zm-3 1a3 3 0 013-3h10a3 3 0 013 3v7a3 3 0 01-3 3H3a3 3 0 01-3-3v-7z"
                                            ></path>
                                            <path
                                                fillRule="evenodd"
                                                clipRule="evenodd"
                                                d="M6.788 5.363a1 1 0 011.035.068l2.5 1.75a1 1 0 010 1.638l-2.5 1.75A1 1 0 016.25 9.75v-3.5a1 1 0 01.538-.887z"
                                            ></path>
                                        </svg>